<?xml version="1.0" encoding="UTF-8"?>
<svg id="Layer_1" xmlns="http://www.w3.org/2000/svg" version="1.1" viewBox="0 0 456.5 448.5" width="456.5" height="448.5">
  <!-- Generator: Adobe Illustrator 30.1.0, SVG Export Plug-In . SVG Version: 2.1.1 Build 136)  -->
  <defs>
    <style>
      .st0 {
        fill: #0c0;
      }

      .st1 {
        fill: #d8d4ce;
      }
    </style>
  </defs>
  <path id="letter-d" class="st1" d="M169.5,20h-13v91.8c-37-46.8-111.4-21.4-112,38.2.6,59.6,75,85,112,38.2v17.8h13c0-36.6,0-147.8,0-186ZM156.4,153.2c-2.1,36.3-42.7,58-74.1,39.7-35.4-20.4-32-73.1,5.8-88.6,33.4-14.3,70.9,12.8,68.3,48.9Z"/>
  <path id="letter-e" class="st1" d="M305.2,139.8c-7-41.3-51.7-64.3-89.3-45.9-40.7,20.3-47.2,75.5-12,104.4,32.1,26.5,80.8,14.4,97.1-23.8h-14.5c-9.7,17.3-29.9,27.3-49.5,24.6-22.1-3-39.6-20.5-42.6-42.6h111.6v-13h-.3c0-.9-.4-2.8-.5-3.7ZM195,140.3c4.2-22.3,24.3-39.2,46.9-39.8,25.3-.8,47.3,17.9,50.7,43h-98.2c.1-.8.5-2.4.6-3.2Z"/>
  <path id="letter-b" class="st1" d="M33,162h-13v186h13v-17.8c21.5,27.7,62,32.6,89.1,10.1,30.5-24.8,30.5-71.8,0-96.6-27.1-22.5-67.6-17.6-89.1,10.1v-91.8ZM131.9,295.2c-1.2,22-18,41.3-39.7,45.3-31.7,6.6-61.3-19.4-59.1-51.7,2.1-31.8,33.3-53.3,63.8-44.2,21.8,6.7,36.6,27.8,35,50.6Z"/>
  <path id="letter-l" class="st1" d="M169.5,162v186h-13v-186h13Z"/>
  <path id="letter-o" class="st1" d="M306,290c-.7-28.6-22.2-54-50.3-59.3-39.2-8-76,23.3-74.7,63.3,1.3,40.1,39.9,68.8,78.7,58.4,27.7-7.4,47.4-33.7,46.3-62.4ZM293,293.6c-.6,22.1-16.7,41.8-38.3,46.6-31.6,7.4-61.7-17.5-60.7-49.8,1.1-31.7,31.6-54.5,62.3-46.2,22,5.7,37.5,26.7,36.7,49.4Z"/>
  <path id="letter-g" class="st1" d="M421.8,252.4c-22.2-27.3-63.1-30.6-89.5-7.4-28.9,25.4-28.3,71,1.6,95.3,27.1,22.5,67.6,17.6,89.1-10.1-.3,7.6.9,38.7-1,45.5-1.6,8.4-5.6,16.5-11.3,22.9-13,15.3-35.9,21.1-54.6,13.7-19-6.8-32.3-26.2-32.1-46.3h-13c-.3,24.7,15.6,48.6,38.6,57.7,27.1,11.7,59.7,1.5,75.9-23,4.8-7.4,8.2-15.8,9.7-24.5,2.1-36.7.2-103.6.8-140.2h-13v17.8l-1.2-1.4ZM422.9,295.2c-1.2,22-18,41.3-39.7,45.3-31.7,6.6-61.3-19.4-59.1-51.7,2.1-31.8,33.3-53.3,63.8-44.2,21.8,6.7,36.6,27.8,35,50.6Z"/>
  <path id="v-mark" class="st0" d="M310.5,94l63,126v-28l-49-98h-14ZM436.5,94l-63,126v-28l49-98h14Z"/>
</svg>