<?xml version="1.0" encoding="UTF-8"?>
<!-- VIRENS.ME Dev Blog Logo — Outline version
     All shapes converted to filled outlines via boolean geometry.
     No stroked shapes, no masking rects, no evenodd hacks.
     The V mark has id="v-mark" for independent color control. -->
<svg xmlns="http://www.w3.org/2000/svg" viewBox="0 0 456.5 448.5">
  <!-- Letterforms (all except V) -->
  <path id="letter-d" fill="#23201c" d="M169.5,20.0 L156.5,20.0 L156.5,111.8 L155.3,110.4 L154.0,108.8 L152.6,107.3 L151.2,105.8 L149.7,104.4 L148.2,103.0 L146.6,101.7 L145.0,100.4 L143.4,99.2 L141.7,98.0 L140.0,96.9 L138.2,95.9 L136.5,94.9 L134.6,93.9 L132.8,93.1 L130.9,92.3 L129.0,91.5 L127.1,90.8 L125.1,90.2 L123.2,89.6 L121.2,89.1 L119.2,88.7 L117.2,88.3 L115.2,88.0 L113.1,87.8 L111.1,87.6 L109.0,87.5 L107.0,87.5 L105.0,87.5 L102.9,87.6 L100.9,87.8 L98.8,88.0 L96.8,88.3 L94.8,88.7 L92.8,89.1 L90.8,89.6 L88.9,90.2 L86.9,90.8 L85.0,91.5 L83.1,92.3 L81.2,93.1 L79.4,93.9 L77.5,94.9 L75.7,95.9 L74.0,96.9 L72.3,98.0 L70.6,99.2 L69.0,100.4 L67.4,101.7 L65.8,103.0 L64.3,104.4 L62.8,105.8 L61.4,107.3 L60.0,108.8 L58.7,110.4 L57.4,112.0 L56.2,113.6 L55.0,115.3 L53.9,117.0 L52.9,118.8 L51.9,120.5 L50.9,122.4 L50.1,124.2 L49.3,126.1 L48.5,128.0 L47.8,129.9 L47.2,131.9 L46.6,133.8 L46.1,135.8 L45.7,137.8 L45.3,139.8 L45.0,141.8 L44.8,143.9 L44.6,145.9 L44.5,148.0 L44.5,150.0 L44.5,152.0 L44.6,154.1 L44.8,156.1 L45.0,158.2 L45.3,160.2 L45.7,162.2 L46.1,164.2 L46.6,166.2 L47.2,168.1 L47.8,170.1 L48.5,172.0 L49.3,173.9 L50.1,175.8 L50.9,177.6 L51.9,179.5 L52.9,181.2 L53.9,183.0 L55.0,184.7 L56.2,186.4 L57.4,188.0 L58.7,189.6 L60.0,191.2 L61.4,192.7 L62.8,194.2 L64.3,195.6 L65.8,197.0 L67.4,198.3 L69.0,199.6 L70.6,200.8 L72.3,202.0 L74.0,203.1 L75.8,204.1 L77.5,205.1 L79.4,206.1 L81.2,206.9 L83.1,207.7 L85.0,208.5 L86.9,209.2 L88.9,209.8 L90.8,210.4 L92.8,210.9 L94.8,211.3 L96.8,211.7 L98.8,212.0 L100.9,212.2 L102.9,212.4 L105.0,212.5 L107.0,212.5 L109.0,212.5 L111.1,212.4 L113.1,212.2 L115.2,212.0 L117.2,211.7 L119.2,211.3 L121.2,210.9 L123.2,210.4 L125.1,209.8 L127.1,209.2 L129.0,208.5 L130.9,207.7 L132.8,206.9 L134.6,206.1 L136.5,205.1 L138.2,204.1 L140.0,203.1 L141.7,202.0 L143.4,200.8 L145.0,199.6 L146.6,198.3 L148.2,197.0 L149.7,195.6 L151.2,194.2 L152.6,192.7 L154.0,191.2 L155.3,189.6 L156.5,188.2 L156.5,206.0 L169.5,206.0 L169.5,150.0 L169.5,20.0 Z M156.4,153.2 L156.3,154.9 L156.1,156.5 L155.8,158.1 L155.5,159.7 L155.2,161.2 L154.8,162.8 L154.4,164.4 L153.9,165.9 L153.3,167.4 L152.7,168.9 L152.1,170.4 L151.4,171.9 L150.7,173.3 L149.9,174.8 L149.0,176.1 L148.2,177.5 L147.2,178.8 L146.3,180.1 L145.3,181.4 L144.2,182.6 L143.1,183.8 L142.0,185.0 L140.8,186.1 L139.6,187.2 L138.4,188.3 L137.1,189.3 L135.8,190.2 L134.5,191.2 L133.1,192.0 L131.8,192.9 L130.3,193.7 L128.9,194.4 L127.4,195.1 L125.9,195.7 L124.4,196.3 L122.9,196.9 L121.4,197.4 L119.8,197.8 L118.2,198.2 L116.7,198.5 L115.1,198.8 L113.5,199.1 L111.9,199.3 L110.2,199.4 L108.6,199.5 L107.0,199.5 L105.4,199.5 L103.8,199.4 L102.1,199.3 L100.5,199.1 L98.9,198.8 L97.3,198.5 L95.8,198.2 L94.2,197.8 L92.6,197.4 L91.1,196.9 L89.6,196.3 L88.1,195.7 L86.6,195.1 L85.1,194.4 L83.7,193.7 L82.3,192.9 L80.9,192.0 L79.5,191.2 L78.2,190.2 L76.9,189.3 L75.6,188.3 L74.4,187.2 L73.2,186.1 L72.0,185.0 L70.9,183.8 L69.8,182.6 L68.7,181.4 L67.7,180.1 L66.8,178.8 L65.8,177.5 L65.0,176.1 L64.1,174.8 L63.3,173.3 L62.6,171.9 L61.9,170.4 L61.3,168.9 L60.7,167.4 L60.1,165.9 L59.6,164.4 L59.2,162.8 L58.8,161.2 L58.5,159.7 L58.2,158.1 L57.9,156.5 L57.7,154.9 L57.6,153.2 L57.5,151.6 L57.5,150.0 L57.5,148.4 L57.6,146.8 L57.7,145.1 L57.9,143.5 L58.2,141.9 L58.5,140.3 L58.8,138.8 L59.2,137.2 L59.6,135.6 L60.1,134.1 L60.7,132.6 L61.3,131.1 L61.9,129.6 L62.6,128.1 L63.3,126.7 L64.1,125.3 L65.0,123.9 L65.8,122.5 L66.8,121.2 L67.7,119.9 L68.7,118.6 L69.8,117.4 L70.9,116.2 L72.0,115.0 L73.2,113.9 L74.4,112.8 L75.6,111.7 L76.9,110.7 L78.2,109.8 L79.5,108.8 L80.9,108.0 L82.2,107.1 L83.7,106.3 L85.1,105.6 L86.6,104.9 L88.1,104.3 L89.6,103.7 L91.1,103.1 L92.6,102.6 L94.2,102.2 L95.8,101.8 L97.3,101.5 L98.9,101.2 L100.5,100.9 L102.1,100.7 L103.8,100.6 L105.4,100.5 L107.0,100.5 L108.6,100.5 L110.2,100.6 L111.9,100.7 L113.5,100.9 L115.1,101.2 L116.7,101.5 L118.2,101.8 L119.8,102.2 L121.4,102.6 L122.9,103.1 L124.4,103.7 L125.9,104.3 L127.4,104.9 L128.9,105.6 L130.3,106.3 L131.8,107.1 L133.1,108.0 L134.5,108.8 L135.8,109.8 L137.1,110.7 L138.4,111.7 L139.6,112.8 L140.8,113.9 L142.0,115.0 L143.1,116.2 L144.2,117.4 L145.3,118.6 L146.3,119.9 L147.2,121.2 L148.2,122.5 L149.0,123.9 L149.9,125.2 L150.7,126.7 L151.4,128.1 L152.1,129.6 L152.7,131.1 L153.3,132.6 L153.9,134.1 L154.4,135.6 L154.8,137.2 L155.2,138.8 L155.5,140.3 L155.8,141.9 L156.1,143.5 L156.3,145.1 L156.4,146.8 L156.5,148.4 L156.5,150.0 L156.5,151.6 L156.4,153.2 Z"/>
  <path id="letter-e" fill="#23201c" d="M305.2,139.8 L304.8,137.8 L304.4,135.8 L303.9,133.8 L303.3,131.9 L302.7,129.9 L302.0,128.0 L301.2,126.1 L300.4,124.2 L299.6,122.4 L298.6,120.5 L297.6,118.7 L296.6,117.0 L295.5,115.3 L294.3,113.6 L293.1,112.0 L291.8,110.4 L290.5,108.8 L289.1,107.3 L287.7,105.8 L286.2,104.4 L284.7,103.0 L283.1,101.7 L281.5,100.4 L279.9,99.2 L278.2,98.0 L276.5,96.9 L274.8,95.9 L273.0,94.9 L271.1,93.9 L269.3,93.1 L267.4,92.3 L265.5,91.5 L263.6,90.8 L261.6,90.2 L259.7,89.6 L257.7,89.1 L255.7,88.7 L253.7,88.3 L251.7,88.0 L249.6,87.8 L247.6,87.6 L245.5,87.5 L243.5,87.5 L241.5,87.5 L239.4,87.6 L237.4,87.8 L235.3,88.0 L233.3,88.3 L231.3,88.7 L229.3,89.1 L227.3,89.6 L225.4,90.2 L223.4,90.8 L221.5,91.5 L219.6,92.3 L217.7,93.1 L215.9,93.9 L214.0,94.9 L212.2,95.9 L210.5,96.9 L208.8,98.0 L207.1,99.2 L205.5,100.4 L203.9,101.7 L202.3,103.0 L200.8,104.4 L199.3,105.8 L197.9,107.3 L196.5,108.8 L195.2,110.4 L193.9,112.0 L192.7,113.6 L191.5,115.3 L190.4,117.0 L189.4,118.8 L188.4,120.5 L187.4,122.4 L186.6,124.2 L185.8,126.1 L185.0,128.0 L184.3,129.9 L183.7,131.9 L183.1,133.8 L182.6,135.8 L182.2,137.8 L181.8,139.8 L181.5,141.8 L181.3,143.9 L181.1,145.9 L181.0,148.0 L181.0,150.0 L181.0,152.0 L181.1,154.1 L181.3,156.1 L181.5,158.2 L181.8,160.2 L182.2,162.2 L182.6,164.2 L183.1,166.2 L183.7,168.1 L184.3,170.1 L185.0,172.0 L185.8,173.9 L186.6,175.8 L187.4,177.6 L188.4,179.5 L189.4,181.2 L190.4,183.0 L191.5,184.7 L192.7,186.4 L193.9,188.0 L195.2,189.6 L196.5,191.2 L197.9,192.7 L199.3,194.2 L200.8,195.6 L202.3,197.0 L203.9,198.3 L205.5,199.6 L207.1,200.8 L208.8,202.0 L210.5,203.1 L212.2,204.1 L214.0,205.1 L215.9,206.1 L217.7,206.9 L219.6,207.7 L221.5,208.5 L223.4,209.2 L225.4,209.8 L227.3,210.4 L229.3,210.9 L231.3,211.3 L233.3,211.7 L235.3,212.0 L237.4,212.2 L239.4,212.4 L241.5,212.5 L243.5,212.5 L245.5,212.5 L247.6,212.4 L249.6,212.2 L251.7,212.0 L253.7,211.7 L255.7,211.3 L257.7,210.9 L259.7,210.4 L261.6,209.8 L263.6,209.2 L265.5,208.5 L267.4,207.7 L269.3,206.9 L271.1,206.1 L273.0,205.1 L274.8,204.1 L276.5,203.1 L278.2,202.0 L279.9,200.8 L281.5,199.6 L283.1,198.3 L284.7,197.0 L286.2,195.6 L287.7,194.2 L289.1,192.7 L290.5,191.2 L291.8,189.6 L293.1,188.0 L294.3,186.4 L295.5,184.7 L296.6,183.0 L297.6,181.2 L298.6,179.5 L299.6,177.6 L300.4,175.8 L301.0,174.5 L286.5,174.5 L286.4,174.8 L285.5,176.1 L284.7,177.5 L283.7,178.8 L282.8,180.1 L281.8,181.4 L280.7,182.6 L279.6,183.8 L278.5,185.0 L277.3,186.1 L276.1,187.2 L274.9,188.3 L273.6,189.3 L272.3,190.2 L271.0,191.2 L269.6,192.0 L268.2,192.9 L266.8,193.7 L265.4,194.4 L263.9,195.1 L262.4,195.7 L260.9,196.3 L259.4,196.9 L257.9,197.4 L256.3,197.8 L254.7,198.2 L253.2,198.5 L251.6,198.8 L250.0,199.1 L248.4,199.3 L246.7,199.4 L245.1,199.5 L243.5,199.5 L241.9,199.5 L240.3,199.4 L238.6,199.3 L237.0,199.1 L235.4,198.8 L233.8,198.5 L232.3,198.2 L230.7,197.8 L229.1,197.4 L227.6,196.9 L226.1,196.3 L224.6,195.7 L223.1,195.1 L221.6,194.4 L220.2,193.7 L218.8,192.9 L217.4,192.0 L216.0,191.2 L214.7,190.2 L213.4,189.3 L212.1,188.3 L210.9,187.2 L209.7,186.1 L208.5,185.0 L207.4,183.8 L206.3,182.6 L205.2,181.4 L204.2,180.1 L203.3,178.8 L202.3,177.5 L201.5,176.1 L200.6,174.8 L199.8,173.3 L199.1,171.9 L198.4,170.4 L197.8,168.9 L197.2,167.4 L196.6,165.9 L196.1,164.4 L195.7,162.8 L195.3,161.2 L195.0,159.7 L194.7,158.1 L194.4,156.5 L270.7,156.5 L292.6,156.5 L305.7,156.5 L306.0,156.5 L306.0,150.0 L306.0,143.5 L305.7,143.5 L305.5,141.8 L305.2,139.8 Z M195.0,140.3 L195.3,138.8 L195.7,137.2 L196.1,135.6 L196.6,134.1 L197.2,132.6 L197.8,131.1 L198.4,129.6 L199.1,128.1 L199.8,126.7 L200.6,125.3 L201.5,123.9 L202.3,122.5 L203.3,121.2 L204.2,119.9 L205.2,118.6 L206.3,117.4 L207.4,116.2 L208.5,115.0 L209.7,113.9 L210.9,112.8 L212.1,111.7 L213.4,110.7 L214.7,109.8 L216.0,108.8 L217.4,108.0 L218.7,107.1 L220.2,106.3 L221.6,105.6 L223.1,104.9 L224.6,104.3 L226.1,103.7 L227.6,103.1 L229.1,102.6 L230.7,102.2 L232.3,101.8 L233.8,101.5 L235.4,101.2 L237.0,100.9 L238.6,100.7 L240.3,100.6 L241.9,100.5 L243.5,100.5 L245.1,100.5 L246.7,100.6 L248.4,100.7 L250.0,100.9 L251.6,101.2 L253.2,101.5 L254.7,101.8 L256.3,102.2 L257.9,102.6 L259.4,103.1 L260.9,103.7 L262.4,104.3 L263.9,104.9 L265.4,105.6 L266.8,106.3 L268.2,107.1 L269.6,108.0 L271.0,108.8 L272.3,109.8 L273.6,110.7 L274.9,111.7 L276.1,112.8 L277.3,113.9 L278.5,115.0 L279.6,116.2 L280.7,117.4 L281.8,118.6 L282.8,119.9 L283.7,121.2 L284.7,122.5 L285.5,123.9 L286.4,125.2 L287.2,126.7 L287.9,128.1 L288.6,129.6 L289.2,131.1 L289.8,132.6 L290.4,134.1 L290.9,135.6 L291.3,137.2 L291.7,138.8 L292.0,140.3 L292.3,141.9 L292.6,143.5 L194.4,143.5 L194.7,141.9 L195.0,140.3 Z"/>
  <path id="letter-b" fill="#23201c" d="M33.0,162.0 L20.0,162.0 L20.0,292.0 L20.0,348.0 L33.0,348.0 L33.0,330.2 L34.2,331.6 L35.5,333.2 L36.9,334.7 L38.3,336.2 L39.8,337.6 L41.3,339.0 L42.9,340.3 L44.5,341.6 L46.1,342.8 L47.8,344.0 L49.5,345.1 L51.3,346.1 L53.0,347.1 L54.9,348.1 L56.7,348.9 L58.6,349.7 L60.5,350.5 L62.4,351.2 L64.4,351.8 L66.3,352.4 L68.3,352.9 L70.3,353.3 L72.3,353.7 L74.3,354.0 L76.4,354.2 L78.4,354.4 L80.5,354.5 L82.5,354.5 L84.5,354.5 L86.6,354.4 L88.6,354.2 L90.7,354.0 L92.7,353.7 L94.7,353.3 L96.7,352.9 L98.7,352.4 L100.6,351.8 L102.6,351.2 L104.5,350.5 L106.4,349.7 L108.3,348.9 L110.1,348.1 L112.0,347.1 L113.8,346.1 L115.5,345.1 L117.2,344.0 L118.9,342.8 L120.5,341.6 L122.1,340.3 L123.7,339.0 L125.2,337.6 L126.7,336.2 L128.1,334.7 L129.5,333.2 L130.8,331.6 L132.1,330.0 L133.3,328.4 L134.5,326.7 L135.6,325.0 L136.6,323.2 L137.6,321.5 L138.6,319.6 L139.4,317.8 L140.2,315.9 L141.0,314.0 L141.7,312.1 L142.3,310.1 L142.9,308.2 L143.4,306.2 L143.8,304.2 L144.2,302.2 L144.5,300.2 L144.7,298.1 L144.9,296.1 L145.0,294.0 L145.0,292.0 L145.0,290.0 L144.9,287.9 L144.7,285.9 L144.5,283.8 L144.2,281.8 L143.8,279.8 L143.4,277.8 L142.9,275.8 L142.3,273.9 L141.7,271.9 L141.0,270.0 L140.2,268.1 L139.4,266.2 L138.6,264.4 L137.6,262.5 L136.6,260.8 L135.6,259.0 L134.5,257.3 L133.3,255.6 L132.1,254.0 L130.8,252.4 L129.5,250.8 L128.1,249.3 L126.7,247.8 L125.2,246.4 L123.7,245.0 L122.1,243.7 L120.5,242.4 L118.9,241.2 L117.2,240.0 L115.5,238.9 L113.8,237.9 L112.0,236.9 L110.1,235.9 L108.3,235.1 L106.4,234.3 L104.5,233.5 L102.6,232.8 L100.6,232.2 L98.7,231.6 L96.7,231.1 L94.7,230.7 L92.7,230.3 L90.7,230.0 L88.6,229.8 L86.6,229.6 L84.5,229.5 L82.5,229.5 L80.5,229.5 L78.4,229.6 L76.4,229.8 L74.3,230.0 L72.3,230.3 L70.3,230.7 L68.3,231.1 L66.3,231.6 L64.4,232.2 L62.4,232.8 L60.5,233.5 L58.6,234.3 L56.7,235.1 L54.9,235.9 L53.0,236.9 L51.2,237.9 L49.5,238.9 L47.8,240.0 L46.1,241.2 L44.5,242.4 L42.9,243.7 L41.3,245.0 L39.8,246.4 L38.3,247.8 L36.9,249.3 L35.5,250.8 L34.2,252.4 L33.0,253.8 L33.0,162.0 Z M131.9,295.2 L131.8,296.9 L131.6,298.5 L131.3,300.1 L131.0,301.7 L130.7,303.2 L130.3,304.8 L129.9,306.4 L129.4,307.9 L128.8,309.4 L128.2,310.9 L127.6,312.4 L126.9,313.9 L126.2,315.3 L125.4,316.8 L124.5,318.1 L123.7,319.5 L122.7,320.8 L121.8,322.1 L120.8,323.4 L119.7,324.6 L118.6,325.8 L117.5,327.0 L116.3,328.1 L115.1,329.2 L113.9,330.3 L112.6,331.3 L111.3,332.2 L110.0,333.2 L108.6,334.0 L107.2,334.9 L105.8,335.7 L104.4,336.4 L102.9,337.1 L101.4,337.7 L99.9,338.3 L98.4,338.9 L96.9,339.4 L95.3,339.8 L93.7,340.2 L92.2,340.5 L90.6,340.8 L89.0,341.1 L87.4,341.3 L85.7,341.4 L84.1,341.5 L82.5,341.5 L80.9,341.5 L79.3,341.4 L77.6,341.3 L76.0,341.1 L74.4,340.8 L72.8,340.5 L71.3,340.2 L69.7,339.8 L68.1,339.4 L66.6,338.9 L65.1,338.3 L63.6,337.7 L62.1,337.1 L60.6,336.4 L59.2,335.7 L57.8,334.9 L56.4,334.0 L55.0,333.2 L53.7,332.2 L52.4,331.3 L51.1,330.3 L49.9,329.2 L48.7,328.1 L47.5,327.0 L46.4,325.8 L45.3,324.6 L44.2,323.4 L43.2,322.1 L42.3,320.8 L41.3,319.5 L40.5,318.1 L39.6,316.8 L38.8,315.3 L38.1,313.9 L37.4,312.4 L36.8,310.9 L36.2,309.4 L35.6,307.9 L35.1,306.4 L34.7,304.8 L34.3,303.2 L34.0,301.7 L33.7,300.1 L33.4,298.5 L33.2,296.9 L33.1,295.2 L33.0,293.6 L33.0,292.0 L33.0,290.4 L33.1,288.8 L33.2,287.1 L33.4,285.5 L33.7,283.9 L34.0,282.3 L34.3,280.8 L34.7,279.2 L35.1,277.6 L35.6,276.1 L36.2,274.6 L36.8,273.1 L37.4,271.6 L38.1,270.1 L38.8,268.7 L39.6,267.2 L40.5,265.9 L41.3,264.5 L42.3,263.2 L43.2,261.9 L44.2,260.6 L45.3,259.4 L46.4,258.2 L47.5,257.0 L48.7,255.9 L49.9,254.8 L51.1,253.7 L52.4,252.7 L53.7,251.8 L55.0,250.8 L56.4,250.0 L57.7,249.1 L59.2,248.3 L60.6,247.6 L62.1,246.9 L63.6,246.3 L65.1,245.7 L66.6,245.1 L68.1,244.6 L69.7,244.2 L71.3,243.8 L72.8,243.5 L74.4,243.2 L76.0,242.9 L77.6,242.7 L79.3,242.6 L80.9,242.5 L82.5,242.5 L84.1,242.5 L85.7,242.6 L87.4,242.7 L89.0,242.9 L90.6,243.2 L92.2,243.5 L93.7,243.8 L95.3,244.2 L96.9,244.6 L98.4,245.1 L99.9,245.7 L101.4,246.3 L102.9,246.9 L104.4,247.6 L105.8,248.3 L107.2,249.1 L108.6,250.0 L110.0,250.8 L111.3,251.8 L112.6,252.7 L113.9,253.7 L115.1,254.8 L116.3,255.9 L117.5,257.0 L118.6,258.2 L119.7,259.4 L120.8,260.6 L121.8,261.9 L122.7,263.2 L123.7,264.5 L124.5,265.9 L125.4,267.2 L126.2,268.7 L126.9,270.1 L127.6,271.6 L128.2,273.1 L128.8,274.6 L129.4,276.1 L129.9,277.6 L130.3,279.2 L130.7,280.8 L131.0,282.3 L131.3,283.9 L131.6,285.5 L131.8,287.1 L131.9,288.8 L132.0,290.4 L132.0,292.0 L132.0,293.6 L131.9,295.2 Z"/>
  <path id="letter-l" fill="#23201c" d="M169.5,162.0 L169.5,348.0 L156.5,348.0 L156.5,162.0 L169.5,162.0 Z"/>
  <path id="letter-o" fill="#23201c" d="M306.0,290.0 L305.9,287.9 L305.7,285.9 L305.5,283.8 L305.2,281.8 L304.8,279.8 L304.4,277.8 L303.9,275.8 L303.3,273.9 L302.7,271.9 L302.0,270.0 L301.2,268.1 L300.4,266.2 L299.6,264.4 L298.6,262.5 L297.6,260.8 L296.6,259.0 L295.5,257.3 L294.3,255.6 L293.1,254.0 L291.8,252.4 L290.5,250.8 L289.1,249.3 L287.7,247.8 L286.2,246.4 L284.7,245.0 L283.1,243.7 L281.5,242.4 L279.9,241.2 L278.2,240.0 L276.5,238.9 L274.8,237.9 L273.0,236.9 L271.1,235.9 L269.3,235.1 L267.4,234.3 L265.5,233.5 L263.6,232.8 L261.6,232.2 L259.7,231.6 L257.7,231.1 L255.7,230.7 L253.7,230.3 L251.7,230.0 L249.6,229.8 L247.6,229.6 L245.5,229.5 L243.5,229.5 L241.5,229.5 L239.4,229.6 L237.4,229.8 L235.3,230.0 L233.3,230.3 L231.3,230.7 L229.3,231.1 L227.3,231.6 L225.4,232.2 L223.4,232.8 L221.5,233.5 L219.6,234.3 L217.7,235.1 L215.9,235.9 L214.0,236.9 L212.2,237.9 L210.5,238.9 L208.8,240.0 L207.1,241.2 L205.5,242.4 L203.9,243.7 L202.3,245.0 L200.8,246.4 L199.3,247.8 L197.9,249.3 L196.5,250.8 L195.2,252.4 L193.9,254.0 L192.7,255.6 L191.5,257.3 L190.4,259.0 L189.4,260.8 L188.4,262.5 L187.4,264.4 L186.6,266.2 L185.8,268.1 L185.0,270.0 L184.3,271.9 L183.7,273.9 L183.1,275.8 L182.6,277.8 L182.2,279.8 L181.8,281.8 L181.5,283.8 L181.3,285.9 L181.1,287.9 L181.0,290.0 L181.0,292.0 L181.0,294.0 L181.1,296.1 L181.3,298.1 L181.5,300.2 L181.8,302.2 L182.2,304.2 L182.6,306.2 L183.1,308.2 L183.7,310.1 L184.3,312.1 L185.0,314.0 L185.8,315.9 L186.6,317.8 L187.4,319.6 L188.4,321.5 L189.4,323.2 L190.4,325.0 L191.5,326.7 L192.7,328.4 L193.9,330.0 L195.2,331.6 L196.5,333.2 L197.9,334.7 L199.3,336.2 L200.8,337.6 L202.3,339.0 L203.9,340.3 L205.5,341.6 L207.1,342.8 L208.8,344.0 L210.5,345.1 L212.2,346.1 L214.0,347.1 L215.9,348.1 L217.7,348.9 L219.6,349.7 L221.5,350.5 L223.4,351.2 L225.4,351.8 L227.3,352.4 L229.3,352.9 L231.3,353.3 L233.3,353.7 L235.3,354.0 L237.4,354.2 L239.4,354.4 L241.5,354.5 L243.5,354.5 L245.5,354.5 L247.6,354.4 L249.6,354.2 L251.7,354.0 L253.7,353.7 L255.7,353.3 L257.7,352.9 L259.7,352.4 L261.6,351.8 L263.6,351.2 L265.5,350.5 L267.4,349.7 L269.3,348.9 L271.1,348.1 L273.0,347.1 L274.8,346.1 L276.5,345.1 L278.2,344.0 L279.9,342.8 L281.5,341.6 L283.1,340.3 L284.7,339.0 L286.2,337.6 L287.7,336.2 L289.1,334.7 L290.5,333.2 L291.8,331.6 L293.1,330.0 L294.3,328.4 L295.5,326.7 L296.6,325.0 L297.6,323.2 L298.6,321.5 L299.6,319.6 L300.4,317.8 L301.2,315.9 L302.0,314.0 L302.7,312.1 L303.3,310.1 L303.9,308.2 L304.4,306.2 L304.8,304.2 L305.2,302.2 L305.5,300.2 L305.7,298.1 L305.9,296.1 L306.0,294.0 L306.0,292.0 L306.0,290.0 Z M293.0,293.6 L292.9,295.2 L292.8,296.9 L292.6,298.5 L292.3,300.1 L292.0,301.7 L291.7,303.2 L291.3,304.8 L290.9,306.4 L290.4,307.9 L289.8,309.4 L289.2,310.9 L288.6,312.4 L287.9,313.9 L287.2,315.3 L286.4,316.8 L285.5,318.1 L284.7,319.5 L283.7,320.8 L282.8,322.1 L281.8,323.4 L280.7,324.6 L279.6,325.8 L278.5,327.0 L277.3,328.1 L276.1,329.2 L274.9,330.3 L273.6,331.3 L272.3,332.2 L271.0,333.2 L269.6,334.0 L268.2,334.9 L266.8,335.7 L265.4,336.4 L263.9,337.1 L262.4,337.7 L260.9,338.3 L259.4,338.9 L257.9,339.4 L256.3,339.8 L254.7,340.2 L253.2,340.5 L251.6,340.8 L250.0,341.1 L248.4,341.3 L246.7,341.4 L245.1,341.5 L243.5,341.5 L241.9,341.5 L240.3,341.4 L238.6,341.3 L237.0,341.1 L235.4,340.8 L233.8,340.5 L232.3,340.2 L230.7,339.8 L229.1,339.4 L227.6,338.9 L226.1,338.3 L224.6,337.7 L223.1,337.1 L221.6,336.4 L220.2,335.7 L218.8,334.9 L217.4,334.0 L216.0,333.2 L214.7,332.2 L213.4,331.3 L212.1,330.3 L210.9,329.2 L209.7,328.1 L208.5,327.0 L207.4,325.8 L206.3,324.6 L205.2,323.4 L204.2,322.1 L203.3,320.8 L202.3,319.5 L201.5,318.1 L200.6,316.8 L199.8,315.3 L199.1,313.9 L198.4,312.4 L197.8,310.9 L197.2,309.4 L196.6,307.9 L196.1,306.4 L195.7,304.8 L195.3,303.2 L195.0,301.7 L194.7,300.1 L194.4,298.5 L194.2,296.9 L194.1,295.2 L194.0,293.6 L194.0,292.0 L194.0,290.4 L194.1,288.8 L194.2,287.1 L194.4,285.5 L194.7,283.9 L195.0,282.3 L195.3,280.8 L195.7,279.2 L196.1,277.6 L196.6,276.1 L197.2,274.6 L197.8,273.1 L198.4,271.6 L199.1,270.1 L199.8,268.7 L200.6,267.2 L201.5,265.9 L202.3,264.5 L203.3,263.2 L204.2,261.9 L205.2,260.6 L206.3,259.4 L207.4,258.2 L208.5,257.0 L209.7,255.9 L210.9,254.8 L212.1,253.7 L213.4,252.7 L214.7,251.8 L216.0,250.8 L217.4,250.0 L218.7,249.1 L220.2,248.3 L221.6,247.6 L223.1,246.9 L224.6,246.3 L226.1,245.7 L227.6,245.1 L229.1,244.6 L230.7,244.2 L232.3,243.8 L233.8,243.5 L235.4,243.2 L237.0,242.9 L238.6,242.7 L240.3,242.6 L241.9,242.5 L243.5,242.5 L245.1,242.5 L246.7,242.6 L248.4,242.7 L250.0,242.9 L251.6,243.2 L253.2,243.5 L254.7,243.8 L256.3,244.2 L257.9,244.6 L259.4,245.1 L260.9,245.7 L262.4,246.3 L263.9,246.9 L265.4,247.6 L266.8,248.3 L268.2,249.1 L269.6,250.0 L271.0,250.8 L272.3,251.8 L273.6,252.7 L274.9,253.7 L276.1,254.8 L277.3,255.9 L278.5,257.0 L279.6,258.2 L280.7,259.4 L281.8,260.6 L282.8,261.9 L283.7,263.2 L284.7,264.5 L285.5,265.9 L286.4,267.2 L287.2,268.7 L287.9,270.1 L288.6,271.6 L289.2,273.1 L289.8,274.6 L290.4,276.1 L290.9,277.6 L291.3,279.2 L291.7,280.8 L292.0,282.3 L292.3,283.9 L292.6,285.5 L292.8,287.1 L292.9,288.8 L293.0,290.4 L293.0,292.0 L293.0,293.6 Z"/>
  <path id="letter-g" fill="#23201c" d="M421.8,252.4 L420.5,250.8 L419.1,249.3 L417.7,247.8 L416.2,246.4 L414.7,245.0 L413.1,243.7 L411.5,242.4 L409.9,241.2 L408.2,240.0 L406.5,238.9 L404.8,237.9 L403.0,236.9 L401.1,235.9 L399.3,235.1 L397.4,234.3 L395.5,233.5 L393.6,232.8 L391.6,232.2 L389.7,231.6 L387.7,231.1 L385.7,230.7 L383.7,230.3 L381.7,230.0 L379.6,229.8 L377.6,229.6 L375.5,229.5 L373.5,229.5 L371.5,229.5 L369.4,229.6 L367.4,229.8 L365.3,230.0 L363.3,230.3 L361.3,230.7 L359.3,231.1 L357.3,231.6 L355.4,232.2 L353.4,232.8 L351.5,233.5 L349.6,234.3 L347.7,235.1 L345.9,235.9 L344.0,236.9 L342.2,237.9 L340.5,238.9 L338.8,240.0 L337.1,241.2 L335.5,242.4 L333.9,243.7 L332.3,245.0 L330.8,246.4 L329.3,247.8 L327.9,249.3 L326.5,250.8 L325.2,252.4 L323.9,254.0 L322.7,255.6 L321.5,257.3 L320.4,259.0 L319.4,260.8 L318.4,262.5 L317.4,264.4 L316.6,266.2 L315.8,268.1 L315.0,270.0 L314.3,271.9 L313.7,273.9 L313.1,275.8 L312.6,277.8 L312.2,279.8 L311.8,281.8 L311.5,283.8 L311.3,285.9 L311.1,287.9 L311.0,290.0 L311.0,292.0 L311.0,294.0 L311.1,296.1 L311.3,298.1 L311.5,300.2 L311.8,302.2 L312.2,304.2 L312.6,306.2 L313.1,308.2 L313.7,310.1 L314.3,312.1 L315.0,314.0 L315.8,315.9 L316.6,317.8 L317.4,319.6 L318.4,321.5 L319.4,323.2 L320.4,325.0 L321.5,326.7 L322.7,328.4 L323.9,330.0 L325.2,331.6 L326.5,333.2 L327.9,334.7 L329.3,336.2 L330.8,337.6 L332.3,339.0 L333.9,340.3 L335.5,341.6 L337.1,342.8 L338.8,344.0 L340.5,345.1 L342.2,346.1 L344.0,347.1 L345.9,348.1 L347.7,348.9 L349.6,349.7 L351.5,350.5 L353.4,351.2 L355.4,351.8 L357.3,352.4 L359.3,352.9 L361.3,353.3 L363.3,353.7 L365.3,354.0 L367.4,354.2 L369.4,354.4 L371.5,354.5 L373.5,354.5 L375.5,354.5 L377.6,354.4 L379.6,354.2 L381.7,354.0 L383.7,353.7 L385.7,353.3 L387.7,352.9 L389.7,352.4 L391.6,351.8 L393.6,351.2 L395.5,350.5 L397.4,349.7 L399.3,348.9 L401.1,348.1 L403.0,347.1 L404.8,346.1 L406.5,345.1 L408.2,344.0 L409.9,342.8 L411.5,341.6 L413.1,340.3 L414.7,339.0 L416.2,337.6 L417.7,336.2 L419.1,334.7 L420.5,333.2 L421.8,331.6 L423.0,330.2 L423.0,366.0 L423.0,367.6 L422.9,369.2 L422.8,370.9 L422.6,372.5 L422.3,374.1 L422.0,375.7 L421.7,377.2 L421.3,378.8 L420.9,380.4 L420.4,381.9 L419.8,383.4 L419.2,384.9 L418.6,386.4 L417.9,387.9 L417.2,389.3 L416.4,390.8 L415.5,392.1 L414.7,393.5 L413.7,394.8 L412.8,396.1 L411.8,397.4 L410.7,398.6 L409.6,399.8 L408.5,401.0 L407.3,402.1 L406.1,403.2 L404.9,404.3 L403.6,405.3 L402.3,406.2 L401.0,407.2 L399.6,408.0 L398.2,408.9 L396.8,409.7 L395.4,410.4 L393.9,411.1 L392.4,411.7 L390.9,412.3 L389.4,412.9 L387.9,413.4 L386.3,413.8 L384.7,414.2 L383.2,414.5 L381.6,414.8 L380.0,415.1 L378.4,415.3 L376.7,415.4 L375.1,415.5 L373.5,415.5 L371.9,415.5 L370.3,415.4 L368.6,415.3 L367.0,415.1 L365.4,414.8 L363.8,414.5 L362.3,414.2 L360.7,413.8 L359.1,413.4 L357.6,412.9 L356.1,412.3 L354.6,411.7 L353.1,411.1 L351.6,410.4 L350.2,409.7 L348.8,408.9 L347.4,408.0 L346.0,407.2 L344.7,406.2 L343.4,405.3 L342.1,404.3 L340.9,403.2 L339.7,402.1 L338.5,401.0 L337.4,399.8 L336.3,398.6 L335.2,397.4 L334.2,396.1 L333.3,394.8 L332.3,393.5 L331.5,392.1 L330.6,390.8 L329.8,389.3 L329.1,387.9 L328.4,386.4 L327.8,384.9 L327.2,383.4 L326.6,381.9 L326.1,380.4 L325.7,378.8 L325.3,377.2 L325.0,375.7 L324.7,374.1 L324.4,372.5 L324.2,370.9 L324.1,369.2 L324.0,367.6 L324.0,366.0 L311.0,366.0 L311.0,368.0 L311.1,370.1 L311.3,372.1 L311.5,374.2 L311.8,376.2 L312.2,378.2 L312.6,380.2 L313.1,382.2 L313.7,384.1 L314.3,386.1 L315.0,388.0 L315.8,389.9 L316.6,391.8 L317.4,393.6 L318.4,395.5 L319.4,397.2 L320.4,399.0 L321.5,400.7 L322.7,402.4 L323.9,404.0 L325.2,405.6 L326.5,407.2 L327.9,408.7 L329.3,410.2 L330.8,411.6 L332.3,413.0 L333.9,414.3 L335.5,415.6 L337.1,416.8 L338.8,418.0 L340.5,419.1 L342.2,420.1 L344.0,421.1 L345.9,422.1 L347.7,422.9 L349.6,423.7 L351.5,424.5 L353.4,425.2 L355.4,425.8 L357.3,426.4 L359.3,426.9 L361.3,427.3 L363.3,427.7 L365.3,428.0 L367.4,428.2 L369.4,428.4 L371.5,428.5 L373.5,428.5 L375.5,428.5 L377.6,428.4 L379.6,428.2 L381.7,428.0 L383.7,427.7 L385.7,427.3 L387.7,426.9 L389.7,426.4 L391.6,425.8 L393.6,425.2 L395.5,424.5 L397.4,423.7 L399.3,422.9 L401.1,422.1 L403.0,421.1 L404.8,420.1 L406.5,419.1 L408.2,418.0 L409.9,416.8 L411.5,415.6 L413.1,414.3 L414.7,413.0 L416.2,411.6 L417.7,410.2 L419.1,408.7 L420.5,407.2 L421.8,405.6 L423.1,404.0 L424.3,402.4 L425.5,400.7 L426.6,399.0 L427.6,397.2 L428.6,395.5 L429.6,393.6 L430.4,391.8 L431.2,389.9 L432.0,388.0 L432.7,386.1 L433.3,384.1 L433.9,382.2 L434.4,380.2 L434.8,378.2 L435.2,376.2 L435.5,374.2 L435.7,372.1 L435.9,370.1 L436.0,368.0 L436.0,366.0 L436.0,292.0 L436.0,236.0 L423.0,236.0 L423.0,253.8 L421.8,252.4 Z M422.9,295.2 L422.8,296.9 L422.6,298.5 L422.3,300.1 L422.0,301.7 L421.7,303.2 L421.3,304.8 L420.9,306.4 L420.4,307.9 L419.8,309.4 L419.2,310.9 L418.6,312.4 L417.9,313.9 L417.2,315.3 L416.4,316.8 L415.5,318.1 L414.7,319.5 L413.7,320.8 L412.8,322.1 L411.8,323.4 L410.7,324.6 L409.6,325.8 L408.5,327.0 L407.3,328.1 L406.1,329.2 L404.9,330.3 L403.6,331.3 L402.3,332.2 L401.0,333.2 L399.6,334.0 L398.2,334.9 L396.8,335.7 L395.4,336.4 L393.9,337.1 L392.4,337.7 L390.9,338.3 L389.4,338.9 L387.9,339.4 L386.3,339.8 L384.7,340.2 L383.2,340.5 L381.6,340.8 L380.0,341.1 L378.4,341.3 L376.7,341.4 L375.1,341.5 L373.5,341.5 L371.9,341.5 L370.3,341.4 L368.6,341.3 L367.0,341.1 L365.4,340.8 L363.8,340.5 L362.3,340.2 L360.7,339.8 L359.1,339.4 L357.6,338.9 L356.1,338.3 L354.6,337.7 L353.1,337.1 L351.6,336.4 L350.2,335.7 L348.8,334.9 L347.4,334.0 L346.0,333.2 L344.7,332.2 L343.4,331.3 L342.1,330.3 L340.9,329.2 L339.7,328.1 L338.5,327.0 L337.4,325.8 L336.3,324.6 L335.2,323.4 L334.2,322.1 L333.3,320.8 L332.3,319.5 L331.5,318.1 L330.6,316.8 L329.8,315.3 L329.1,313.9 L328.4,312.4 L327.8,310.9 L327.2,309.4 L326.6,307.9 L326.1,306.4 L325.7,304.8 L325.3,303.2 L325.0,301.7 L324.7,300.1 L324.4,298.5 L324.2,296.9 L324.1,295.2 L324.0,293.6 L324.0,292.0 L324.0,290.4 L324.1,288.8 L324.2,287.1 L324.4,285.5 L324.7,283.9 L325.0,282.3 L325.3,280.8 L325.7,279.2 L326.1,277.6 L326.6,276.1 L327.2,274.6 L327.8,273.1 L328.4,271.6 L329.1,270.1 L329.8,268.7 L330.6,267.2 L331.5,265.9 L332.3,264.5 L333.3,263.2 L334.2,261.9 L335.2,260.6 L336.3,259.4 L337.4,258.2 L338.5,257.0 L339.7,255.9 L340.9,254.8 L342.1,253.7 L343.4,252.7 L344.7,251.8 L346.0,250.8 L347.4,250.0 L348.8,249.1 L350.2,248.3 L351.6,247.6 L353.1,246.9 L354.6,246.3 L356.1,245.7 L357.6,245.1 L359.1,244.6 L360.7,244.2 L362.3,243.8 L363.8,243.5 L365.4,243.2 L367.0,242.9 L368.6,242.7 L370.3,242.6 L371.9,242.5 L373.5,242.5 L375.1,242.5 L376.7,242.6 L378.4,242.7 L380.0,242.9 L381.6,243.2 L383.2,243.5 L384.7,243.8 L386.3,244.2 L387.9,244.6 L389.4,245.1 L390.9,245.7 L392.4,246.3 L393.9,246.9 L395.4,247.6 L396.8,248.3 L398.2,249.1 L399.6,250.0 L401.0,250.8 L402.3,251.8 L403.6,252.7 L404.9,253.7 L406.1,254.8 L407.3,255.9 L408.5,257.0 L409.6,258.2 L410.7,259.4 L411.8,260.6 L412.8,261.9 L413.7,263.2 L414.7,264.5 L415.5,265.9 L416.4,267.2 L417.2,268.7 L417.9,270.1 L418.6,271.6 L419.2,273.1 L419.8,274.6 L420.4,276.1 L420.9,277.6 L421.3,279.2 L421.7,280.8 L422.0,282.3 L422.3,283.9 L422.6,285.5 L422.8,287.1 L422.9,288.8 L423.0,290.4 L423.0,292.0 L423.0,293.6 L422.9,295.2 Z"/>
  <!-- V mark — independent color control -->
  <path id="v-mark" fill="#00cc00" d="M310.50,94.00 L373.50,220.00 L373.50,192.00 L324.50,94.00 Z M436.50,94.00 L373.50,220.00 L373.50,192.00 L422.50,94.00 Z"/>
</svg>